<svg width="52" height="74" viewBox="0 0 52 74" fill="none" xmlns="http://www.w3.org/2000/svg">
<path d="M15.9604 25.1045C10.7212 27.4018 6.42836 31.4266 3.7984 36.507C1.16845 41.5874 0.360453 47.4161 1.50927 53.0204C2.65808 58.6246 5.6942 63.6653 10.1109 67.3012C14.5276 70.9371 20.0577 72.9483 25.7783 72.999C31.4988 73.0498 37.0637 71.137 41.5442 67.58C46.0248 64.023 49.1498 59.0369 50.3978 53.4539C51.6459 47.871 50.9414 42.0288 48.4019 36.9026C45.8625 31.7763 41.6418 27.6761 36.4441 25.2861" stroke="white" stroke-width="2"/>
<path d="M25.2929 56.7071C25.6834 57.0976 26.3166 57.0976 26.7071 56.7071L33.0711 50.3431C33.4616 49.9526 33.4616 49.3195 33.0711 48.9289C32.6805 48.5384 32.0474 48.5384 31.6569 48.9289L26 54.5858L20.3431 48.9289C19.9526 48.5384 19.3195 48.5384 18.9289 48.9289C18.5384 49.3195 18.5384 49.9526 18.9289 50.3431L25.2929 56.7071ZM25 -4.37113e-08L25 56L27 56L27 4.37113e-08L25 -4.37113e-08Z" fill="white"/>
</svg>
