<svg width="41" height="70" viewBox="0 0 41 70" fill="none" xmlns="http://www.w3.org/2000/svg">
<path d="M11.937 64.4895C11.937 64.1505 12.731 63.252 12.9281 63.252C13.0281 63.252 13.828 64.1493 13.828 64.4895C13.5826 64.9145 13.2788 65.2925 12.9281 65.6095C12.7281 65.6095 11.937 64.5991 11.937 64.4895ZM27.3491 64.4895C27.5406 63.9551 27.8954 63.516 28.3491 63.252C28.4491 63.252 29.243 64.1493 29.243 64.4895C28.9979 64.9126 28.6963 65.2904 28.3491 65.6095C28.149 65.6095 27.3491 64.5991 27.3491 64.4895ZM19.5901 64.4895C19.5901 64.1505 20.3901 63.252 20.59 63.252C20.6901 63.252 21.484 64.1493 21.484 64.4895C21.2397 64.9134 20.9381 65.2913 20.59 65.6095C20.39 65.6095 19.5901 64.5991 19.5901 64.4895ZM10.9401 66.283H14.8231C15.08 66.3004 15.3007 66.0791 15.3161 65.7888C15.3172 65.7678 15.3172 65.7468 15.3161 65.7259V63.252C15.3324 62.9586 15.1352 62.7058 14.8755 62.6874C14.8581 62.6861 14.8405 62.686 14.8231 62.6869C14.0231 62.6869 12.1351 62.7999 10.9401 62.913C10.7433 62.8906 10.5678 63.0527 10.5481 63.2751C10.5457 63.302 10.5457 63.3291 10.5481 63.356V65.8332C10.5283 66.0555 10.6717 66.2539 10.8685 66.2762C10.8923 66.2789 10.9162 66.2789 10.9401 66.2762M8.35505 64.7121C8.35505 64.4861 8.95505 63.8148 9.05505 63.8148C9.15505 63.8148 9.75505 64.4929 9.75505 64.7121C9.57575 65.06 9.33795 65.3648 9.05505 65.6095C8.77215 65.3648 8.53435 65.06 8.35505 64.7121ZM16.0171 64.4861C16.0171 64.2601 16.6171 63.582 16.7101 63.582C16.8031 63.582 17.4101 64.2601 17.4101 64.4861C17.2317 64.8347 16.9937 65.1397 16.7101 65.3834C16.4295 65.1382 16.1941 64.8334 16.0171 64.4861ZM22.4781 66.3971C22.7359 66.4179 22.9597 66.1984 22.9781 65.9071C22.9796 65.8821 22.9796 65.857 22.9781 65.8321V63.1311C22.9982 62.8417 22.8069 62.5887 22.5509 62.566C22.5267 62.5639 22.5023 62.5639 22.4781 62.566H18.6991C18.4418 62.5446 18.218 62.763 18.1991 63.0536C18.1974 63.0794 18.1974 63.1053 18.1991 63.1311V65.8321C18.1819 66.1248 18.378 66.3778 18.637 66.3971C18.6577 66.3987 18.6784 66.3987 18.6991 66.3971H22.4781ZM30.2341 66.2841C30.4315 66.3101 30.6103 66.1503 30.6333 65.9271C30.6362 65.8985 30.6365 65.8697 30.6341 65.8411V63.3616C30.6531 63.138 30.508 62.9392 30.3101 62.9177C30.2848 62.915 30.2593 62.9153 30.2341 62.9186C29.0421 62.7988 27.1511 62.6926 26.3511 62.6926C26.0912 62.6783 25.8703 62.9047 25.8577 63.1983C25.8568 63.2181 25.857 63.2379 25.8581 63.2577V65.7315C25.8427 66.0218 26.0385 66.2713 26.2954 66.2887C26.3139 66.2899 26.3325 66.2899 26.3511 66.2887L30.2341 66.2841ZM32.8181 64.7133C32.641 65.0606 32.4056 65.3654 32.125 65.6106C31.8414 65.3669 31.6034 65.0619 31.4251 64.7133C31.4251 64.4872 32.0251 63.8159 32.125 63.8159C32.2251 63.8159 32.8181 64.494 32.8181 64.7133ZM25.1591 64.4872C24.9816 64.8366 24.7435 65.1418 24.4591 65.3846C24.1762 65.1399 23.9383 64.8351 23.7591 64.4872C23.7591 64.2612 24.3591 63.5831 24.4591 63.5831C24.5591 63.5831 25.1591 64.2612 25.1591 64.4872ZM15.0201 12.3419H15.1201C15.6201 14.4756 17.8051 14.7062 18.3001 17.1732L18.2001 17.2863C17.1051 15.4927 15.616 15.2656 15.0201 14.3683C14.72 13.9162 14.72 13.3579 15.0201 12.3442M18.6991 41.115C18.6991 44.5992 16.1151 46.1735 13.4271 46.1735C16.9081 41.9027 14.2271 35.7209 17.6051 31.6728C17.3051 35.27 18.7001 38.6412 18.7001 41.115M35.2061 50.6658C38.8881 50.6658 40.7761 48.5321 40.7761 45.2705C40.78 44.6174 40.6783 43.969 40.4761 43.3572C39.6484 44.0777 38.6358 44.4744 37.5911 44.4873C35.789 44.621 34.2322 43.0783 34.114 41.0417C34.1088 40.9521 34.1065 40.8624 34.1071 40.7726C34.1071 37.2918 37.3941 35.4949 37.3941 31.5598C37.4405 30.9979 37.2976 30.4369 36.9941 29.9889C38.2234 28.2619 38.9222 26.1298 38.9851 23.9145C38.9937 22.0533 38.4712 20.2386 37.495 18.7396L39.0821 19.6437C38.6611 17.8075 37.9188 16.0851 36.8991 14.5785C36.8991 14.5785 37.6931 15.0305 38.0941 14.8045C37.2941 14.3524 36.1001 12.6708 36.1001 9.62963C36.1001 6.58846 35.5001 4.90795 30.3351 3.90101C29.6773 2.5931 28.7561 1.47881 27.6461 0.648499C26.4138 1.23053 25.218 1.90678 24.0671 2.67256C24.0671 2.67256 22.5671 2.78557 21.9751 2.78557C21.307 2.71475 20.6429 2.60156 19.9861 2.44654C19.1787 2.54126 18.4501 3.03594 17.9971 3.79704C16.462 3.8652 14.9329 4.05401 13.4211 4.3621C12.43 4.58813 11.8341 5.48206 11.1371 7.3965L6.26905 10.4207C5.37305 10.9858 4.77705 11.3248 4.77705 12.2289C4.9072 13.0511 5.21651 13.8236 5.67705 14.4768C6.17005 17.8479 6.66805 18.4107 7.36205 18.4107C7.56455 18.3926 7.7653 18.3548 7.96205 18.2977C8.28479 18.7422 8.55381 19.2332 8.76205 19.7579C7.96205 20.2099 6.97105 19.1928 5.77605 19.1928C4.8606 19.109 4.05838 19.8798 3.98426 20.9144C3.98236 20.941 3.98095 20.9676 3.98005 20.9942C3.98005 21.4463 4.18005 21.5593 4.38005 21.5593C4.68005 21.5593 4.98005 21.4463 5.68005 21.4463C6.57105 21.4463 7.26705 22.3504 8.65705 22.3504C9.15705 22.3504 9.45705 22.2374 9.65705 22.3504C8.96405 22.9075 8.56205 23.2477 8.76605 24.0309C9.05205 25.4853 10.246 27.176 10.8461 27.176C11.3197 27.1258 11.7863 27.012 12.2361 26.837L11.6361 27.402C7.66205 31.2264 8.55305 35.4938 8.55305 39.7657C8.55305 43.0261 7.75905 45.0501 5.47005 45.0501C3.41043 44.8611 1.52466 43.6716 0.301052 41.7897C0.0895062 42.6308 -0.0115728 43.5023 0.00105186 44.3766C0.00105186 48.3038 3.18705 50.8918 6.37105 50.8918C8.84211 50.9645 11.25 50.0039 13.1331 48.1942C18.798 48.0811 20.5881 43.8126 20.5881 43.8126C23.2721 48.1919 28.2461 47.8551 29.0461 47.8551C30.6957 49.6675 32.9084 50.6766 35.209 50.6658M35.6091 26.8358C35.6091 31.5575 30.236 32.1203 30.236 36.7324C30.236 38.5259 30.736 39.7634 30.4361 40.8901C30.995 40.2206 31.4046 39.4101 31.6311 38.5259C31.6311 42.0101 33.224 46.0548 37.2961 46.0548C38.0999 46.0725 38.8923 45.8378 39.5851 45.3767C39.4105 47.3574 37.8586 48.811 36.1041 48.6372C31.9321 48.6372 28.1471 44.7032 28.1471 37.4003C28.0904 35.9839 28.403 34.5798 29.0461 33.3623C29.0461 33.3623 27.0571 34.5931 26.8541 38.5304C26.3573 37.6158 26.0834 36.5689 26.0601 35.496C26.0601 29.8782 32.1291 31.9022 35.6101 26.8404M30.934 5.59394C34.6131 6.49805 34.114 9.19453 34.8111 11.0988C33.7577 9.6606 32.5173 8.4115 31.132 7.39424C31.2497 6.78596 31.1791 6.15049 30.932 5.59394M8.64605 16.8365C8.93992 16.7328 9.24098 16.6572 9.54605 16.6104C9.73378 17.2258 9.76838 17.8877 9.64605 18.5238C9.03874 18.506 8.55913 17.9353 8.57482 17.2489C8.57802 17.109 8.6021 16.9707 8.64605 16.8399M10.746 20.2076C10.3461 20.8835 10.0461 21.7808 8.85405 21.7808C7.66205 21.7808 6.66505 20.7637 5.87105 20.7637C5.60469 20.7876 5.33965 20.8276 5.07705 20.8835C4.87705 20.8835 4.77705 20.7637 4.77705 20.6574C4.77705 20.3184 5.17705 19.9794 5.77105 19.9794C6.44759 20.1005 7.11323 20.2896 7.76005 20.5444C9.05205 20.9965 9.84605 19.7533 10.3441 19.3013C10.7777 18.8514 11.3485 18.6085 11.9371 18.6232C12.5367 18.6265 13.1232 18.8224 13.6281 19.1883C12.7727 19.3776 11.9605 19.7622 11.2411 20.3184C10.9411 20.2054 10.8411 20.0924 10.7411 20.2054M11.8411 21.6655C11.5812 21.9725 11.2165 22.1374 10.8411 22.1176C10.7319 21.6758 10.7319 21.2088 10.8411 20.7671C11.2411 20.7671 11.8411 21.1061 11.8411 21.6712M5.47105 46.3984C10.1461 46.3939 10.0461 40.3262 10.0461 38.3021C10.0461 29.2001 12.4361 26.9455 18.0031 24.0252C22.1811 21.7808 25.9601 20.8846 25.9601 16.3833C25.9601 14.8124 25.5601 13.1229 23.9711 13.1229C24.3595 13.6196 24.5731 14.2602 24.5711 14.9232C24.5558 15.4272 24.4539 15.9232 24.2711 16.3833C24.2785 15.8609 24.1384 15.3494 23.8711 14.9232C23.3781 15.8273 23.4711 17.171 23.1711 17.7338C23.1711 17.7338 22.9711 18.2989 21.5841 19.0843C21.5841 19.0843 21.3841 19.3047 22.0771 19.3047C22.0771 19.3047 23.7681 19.3047 24.3661 18.5215C23.8661 20.0924 23.2711 20.6552 22.3771 20.6552C21.8771 20.6552 21.0851 20.5422 20.3881 20.5422C19.1961 20.5422 16.4081 21.2202 15.313 23.3494C14.3605 24.7804 12.9857 25.7784 11.4381 26.1623C10.746 26.1623 9.74605 24.3688 9.74605 23.5743C9.74605 22.677 11.1461 23.2353 12.2301 22.0034C14.0211 19.9794 14.7171 19.533 16.6111 19.533C16.6111 19.533 17.7001 19.533 16.7111 18.4028L13.6271 15.1458C13.3619 14.7568 12.9648 14.5109 12.5321 14.4677C12.3371 14.4677 11.9321 14.5807 11.0391 15.4848C9.99649 15.525 8.97557 15.8318 8.05305 16.3822C7.75305 16.6082 7.56005 16.8342 7.35305 16.8342C7.05305 16.8342 6.66005 15.0339 6.66005 14.7005C6.66005 13.7964 7.56005 13.2314 7.56005 12.6765C7.55095 12.4708 7.43224 12.2919 7.26005 12.2244L5.96805 12.9025C5.96805 12.9025 5.26805 11.9984 6.06805 11.552C6.06805 11.552 8.05705 10.3145 11.8421 8.29156C12.0371 9.52905 12.342 9.75169 13.232 9.63868L12.8321 9.75169L12.6371 10.0907C13.1417 10.1624 13.6541 10.0845 14.1241 9.8647C14.6241 9.63868 15.2241 9.63868 15.3191 9.52566C15.4141 9.41265 15.7191 9.07361 15.7191 8.9606C15.3157 8.9972 14.9159 9.07282 14.5241 9.18663C15.1241 8.73457 15.4241 8.39553 15.4241 8.16951C15.4146 8.08345 15.3793 8.00366 15.324 7.94348C15.024 7.94348 14.831 8.16951 14.5301 8.0565C14.2913 7.93775 14.1352 7.67318 14.1301 7.37842C14.1301 7.15239 14.3301 6.92637 15.0301 6.92637H15.5301C15.5301 6.48336 14.5301 6.24829 14.1301 6.24829C13.5076 6.29352 12.9005 6.48603 12.3481 6.81335C12.4564 6.20456 12.8273 5.69754 13.3361 5.46285C15.1696 5.05059 17.0369 4.86116 18.9061 4.89779C22.4881 4.89779 25.1701 8.38197 25.6681 8.38197C25.8681 8.38197 26.0681 8.1616 25.7681 7.93896C24.4761 6.92185 23.6821 6.13867 23.6821 5.12833C23.6821 4.78929 23.6821 2.65448 27.7621 1.86791C29.5531 3.5518 30.1491 4.78816 30.1491 5.91603C30.1491 7.82708 28.2611 8.04972 28.0571 8.83629C32.7331 9.17533 36.2151 16.1448 36.2151 19.629C36.2151 25.9204 30.9431 28.5084 27.6621 29.2916C32.4331 25.2469 34.2231 21.1999 34.2231 18.3881C34.2231 13.7806 30.5411 11.0796 29.6501 10.5258C31.3076 12.4942 32.2326 15.107 32.2341 17.8242C32.2987 20.0422 31.4984 22.1804 30.0451 23.6726C30.3771 22.9413 30.5486 22.1304 30.5451 21.3084C30.5443 20.9696 30.5108 20.632 30.4451 20.3014C28.5461 25.3757 24.1691 28.8599 23.8681 33.1273C23.5983 32.1841 23.4632 31.1983 23.4681 30.207C23.476 28.0513 24.1838 25.9739 25.4571 24.3688C21.5801 27.3998 20.6831 30.884 20.6831 33.5816C20.6889 35.2209 21.0291 36.8366 21.6771 38.3033C21.5145 36.9568 21.5483 35.5893 21.7771 34.2551C22.2319 39.1297 24.757 43.4493 28.5461 45.8344C20.3911 45.8344 17.0101 34.818 20.3911 27.8496C14.7201 29.5335 14.0241 36.1685 13.9271 39.986C13.6004 38.4008 13.4326 36.779 13.4271 35.1513C13.4271 28.296 18.5021 26.5025 22.2811 24.588C27.8461 21.7808 30.1371 19.5341 30.1371 15.486C30.1371 11.2186 25.6581 8.52098 22.3781 9.30416L23.5731 10.6547C23.7273 10.8194 23.8947 10.9677 24.0731 11.0977C27.5461 13.1217 28.0461 15.3763 28.0461 16.7257C28.0461 20.3195 24.4641 22.2306 21.8801 23.4613C13.5241 27.5094 12.034 29.3097 12.034 35.1513C12.034 39.4221 13.1341 46.1678 9.14905 46.7306C9.44905 47.2957 10.842 47.5138 10.842 47.5138C9.72315 48.5425 8.30525 49.063 6.86505 48.9739C5.46505 48.9739 2.68705 48.5309 1.88805 45.1564C2.94503 45.9659 4.19319 46.3971 5.47005 46.3939M27.2521 7.61687L27.552 7.8429C27.552 7.8429 29.3431 6.9388 29.3431 5.47867C29.3377 5.02685 29.1967 4.59048 28.9431 4.24118C28.743 4.24118 28.743 4.69323 28.743 4.91926C28.7397 5.36301 28.4186 5.71964 28.0259 5.71581C28.0002 5.71556 27.9746 5.71374 27.949 5.71035C27.358 5.67213 26.8856 5.14062 26.849 4.47285C26.8838 4.00732 26.9851 3.55123 27.149 3.12235C27.149 3.05993 27.1043 3.00934 27.049 3.00934C25.456 3.68741 25.358 4.46946 25.358 5.0334C25.358 5.81658 25.658 6.60428 27.246 7.61461M8.05405 12.2289C8.18363 12.474 8.40403 12.6401 8.65405 12.681C9.08459 12.2835 9.36959 11.7198 9.45405 11.0988C8.95405 11.2186 8.05405 11.4378 8.05405 12.2289ZM40.375 49.652L40.0751 49.539C39.1463 50.8891 37.7162 51.6763 36.2031 51.6704L36.1031 51.8965C37.0031 52.9068 36.8031 55.1512 35.7031 55.1512C35.0101 55.1512 34.7091 54.4732 34.6081 53.9137L34.4081 53.8007C33.9599 54.1488 33.5286 54.5238 33.1161 54.9241C33.1292 55.6415 33.1961 56.3565 33.3161 57.0612H33.5161C33.6678 56.7212 33.9732 56.5038 34.3101 56.4961C34.8181 56.5064 35.2225 56.9802 35.2134 57.5543C35.213 57.5783 35.2119 57.6023 35.2101 57.6262C35.2177 58.8027 34.3799 59.7634 33.3389 59.772C33.2671 59.7726 33.1954 59.7686 33.1241 59.7599C31.6311 59.7599 30.3391 58.9688 30.3391 57.173C30.3421 56.0846 30.9309 55.1077 31.8261 54.706V54.4799C31.1112 53.8501 30.5334 53.0437 30.1371 52.1225H29.937C29.3675 52.9089 28.6096 53.4935 27.754 53.8064V54.0324C28.3308 54.6434 28.6541 55.4999 28.6451 56.3932C28.6451 57.85 27.5501 58.7473 25.267 58.7473C23.576 58.7473 21.883 58.1935 21.883 56.2802C21.8217 55.485 22.3424 54.784 23.0461 54.7147C23.089 54.7105 23.132 54.7087 23.175 54.7094C23.7781 54.6983 24.3441 55.0369 24.675 55.6067H24.875C25.2484 55.0254 25.6822 54.4969 26.167 54.0324V53.8064C25.6697 53.3151 25.2349 52.7484 24.875 52.1225H24.675C24.2696 52.782 23.5941 53.1618 22.884 53.1294C22.3901 53.1919 21.9448 52.7899 21.8896 52.2316C21.886 52.1954 21.8842 52.159 21.884 52.1225C21.884 51.1054 22.979 50.6624 23.873 50.3222V50.0962C22.4513 49.3921 21.3161 48.1091 20.693 46.5024H20.493C19.8691 48.1084 18.7342 49.3911 17.313 50.0962V50.3222C18.204 50.6612 19.299 51.1133 19.299 52.1225C19.2972 52.6842 18.8927 53.1379 18.3956 53.1357C18.3634 53.1356 18.3311 53.1335 18.299 53.1294C17.5897 53.1623 16.9149 52.7823 16.511 52.1225H16.311C15.9502 52.7477 15.5156 53.3142 15.019 53.8064V54.0324C15.5031 54.4978 15.9368 55.0262 16.311 55.6067H16.511C16.8396 55.038 17.4031 54.6993 18.004 54.7094C18.7092 54.6969 19.2899 55.3328 19.3009 56.1297C19.3016 56.18 19.3 56.2302 19.296 56.2802C19.296 58.1935 17.605 58.7473 15.912 58.7473C13.628 58.7473 12.534 57.85 12.534 56.3932C12.5264 55.4995 12.8507 54.6432 13.428 54.0324V53.8064C12.5714 53.4934 11.8123 52.9089 11.2411 52.1225H11.0411C10.6445 53.0433 10.0672 53.8496 9.35305 54.4799V54.706C10.2524 55.1074 10.844 56.0882 10.8461 57.1809C10.8461 58.9812 9.55405 59.7678 8.05805 59.7678C7.0217 59.892 6.09247 59.0433 5.98254 57.8721C5.97512 57.7931 5.97162 57.7136 5.97205 57.6341C5.92887 57.0607 6.30517 56.5563 6.81254 56.5075C6.83234 56.5056 6.85219 56.5045 6.87205 56.504C7.21077 56.5103 7.51865 56.7277 7.67205 57.0691H7.86705C7.98846 56.3646 8.05538 55.6496 8.06705 54.932C7.65449 54.5317 7.2232 54.1567 6.77505 53.8086L6.57505 53.9217C6.53664 54.5863 6.06816 55.1157 5.48005 55.1591C4.38505 55.1591 4.18805 52.9147 5.08805 51.9044L4.97105 51.6704C3.45595 51.6767 2.02393 50.8886 1.09405 49.5368L0.794051 49.6498L4.97105 60.4414C4.97105 60.4414 4.08005 60.8934 4.27805 61.6789C4.67805 63.2531 5.87105 65.2761 5.87105 67.751C5.87105 68.7614 5.77105 68.871 5.77105 69.3219C5.77105 69.7728 6.07105 70 6.47105 70H34.71C35.1101 70 35.403 69.774 35.403 69.3219C35.403 68.8699 35.3031 68.7569 35.3031 67.751C35.3031 65.2772 36.4951 63.2531 36.896 61.6789C37.0961 60.8957 36.196 60.4414 36.196 60.4414L40.375 49.652ZM20.5871 67.4097C12.8281 67.4097 7.66205 67.2967 7.66205 67.2967L6.56205 62.5751C11.2117 61.8762 15.8947 61.4988 20.5851 61.4449C25.2754 61.4988 29.9584 61.8762 34.6081 62.5751L33.516 67.3001C33.516 67.3001 28.347 67.4131 20.5881 67.4131" fill="white"/>
</svg>
