<svg width="12" height="13" viewBox="0 0 12 13" fill="none" xmlns="http://www.w3.org/2000/svg">
<path d="M11.711 9.53818C11.5278 9.40936 9.52344 8.07565 9.27778 7.92549C9.17075 7.85995 9.04015 7.82793 8.89813 7.82793C8.71495 7.82793 8.51212 7.8813 8.31417 7.98559C8.12124 8.08726 7.5369 8.41999 7.25098 8.58346C6.99913 8.40651 6.4075 7.95301 5.47529 7.01923C4.54892 6.09257 4.09161 5.49565 3.91367 5.2423C4.07665 4.95638 4.40877 4.37162 4.50981 4.17913C4.70122 3.81626 4.72294 3.45394 4.56763 3.20959C4.42188 2.97928 3.0945 0.964924 2.95753 0.775434C2.82861 0.596617 2.59715 0.5 2.34606 0.5C2.14791 0.5 1.93778 0.559918 1.75554 0.686868C1.73795 0.699414 -0.023158 1.97716 0.000230918 2.70385C0.0651704 4.74517 2.04742 7.14412 3.69886 8.79729C5.35029 10.4505 7.74777 12.4347 9.7957 12.5H9.81254C10.5296 12.5 11.79 10.76 11.8021 10.7427C12.1327 10.2699 12.0122 9.7494 11.711 9.53818ZM11.194 10.3065C10.7193 10.9644 10.0453 11.6516 9.78149 11.75C8.37778 11.684 6.40806 10.4496 4.22802 8.26761C2.04817 6.08549 0.814728 4.11663 0.749613 2.71661C0.844292 2.45185 1.53098 1.7731 2.1825 1.30162C2.23078 1.26829 2.29028 1.24901 2.34585 1.24901C2.35819 1.24901 2.36848 1.25013 2.37654 1.25163C2.58704 1.55777 3.71701 3.26955 3.92208 3.58954C3.92283 3.62324 3.91143 3.70879 3.84724 3.83088C3.77894 3.96102 3.56619 4.34037 3.26363 4.87102L3.02825 5.28389L3.30124 5.67298C3.50482 5.96227 3.98907 6.59122 4.94577 7.54878C5.90659 8.51064 6.53285 8.99374 6.82081 9.19633L7.20963 9.46951L7.62221 9.23359C8.02208 9.00495 8.50519 8.73102 8.66238 8.64845C8.78849 8.58198 8.87475 8.57673 8.89814 8.57673C8.90188 8.57673 8.90508 8.57673 8.90768 8.57711C9.19415 8.75705 10.9418 9.91815 11.2503 10.1299C11.2554 10.1599 11.2507 10.225 11.194 10.3065ZM7.54176 4.91447C7.59003 4.96334 7.65798 4.99313 7.73338 4.99108L7.87035 4.98788C7.87296 4.98788 7.87483 4.98677 7.87783 4.98659L10.5618 4.99838C10.7127 4.99482 10.8379 4.86974 10.8415 4.71825L10.8417 4.52614C10.8188 4.34789 10.6787 4.2434 10.5275 4.24677L8.75574 4.24209L11.8191 1.18067C11.9653 1.03444 11.9653 0.797189 11.8191 0.650953C11.673 0.504903 11.4361 0.504903 11.29 0.650953L8.21817 3.7208L8.22846 1.90884C8.23182 1.75756 8.1119 1.62574 7.96071 1.6293L7.76873 1.62947C7.61717 1.63322 7.492 1.72329 7.4888 1.87458L7.48113 4.57799C7.48113 4.5806 7.49142 4.58248 7.49142 4.5851L7.47645 4.72216C7.47496 4.79818 7.49272 4.86577 7.54176 4.91447Z" fill="white"/>
</svg>
